# xmcd
#
# Track frame offsets:
#	150
#	37272
#	69224
#	98134
#	128329
#	166402
#	183149
#	202355
#	221752
#	254594
#	270104
#	290341
#	308962
#	330136
#
# Disc length: 4652
#
# Revision: 1
# Processed by: cddbd v1.5.1PL0 Copyright (c) Steve Scherf et al.
# Submitted via: EasyCDDAExtractor 5.0.5.1
# Normalized: r0:DSETVAR1
#
DISCID=c7122a0e
DTITLE=Various Artist - DEE JAY MIX CLUB KWIECIEÑ 2003 PART 1
DYEAR=2003
DGENRE=Acid
TTITLE0=GROOVE COVERAGE - THE END
TTITLE1=ABEL RAMOS - ONE MORE(RMX)
TTITLE2=KLUBBHEADS - SOMEBODY SCREAM (RMX)
TTITLE3=MASTER BLASTER - HOW OLD R U
TTITLE4=NALIN INC - PLANET VIOLET 2003
TTITLE5=CHER - LOVE ONE ANOTHER
TTITLE6=THE CARDIGANS - FOR WHAT IT'S WORTH
TTITLE7=ALIZEE - J'EN AI MARRE
TTITLE8=LAYO and BUSHWACKA - LOVE STORYVS.FINALLY (RMX)
TTITLE9=JENNIFER LOPEZ - JENNY FROM THE BLOCK(RMX)
TTITLE10=MADONNA - AMERICAN LIFE
TTITLE11=ROYCE DA 5' 9'' - ROCK CITY
TTITLE12=CRAIG DAVID FEAT STING - RISE AND FALL
TTITLE13=SUGARBABES - SHAPE
EXTD=
EXTT0=
EXTT1=
EXTT2=
EXTT3=
EXTT4=
EXTT5=
EXTT6=
EXTT7=
EXTT8=
EXTT9=
EXTT10=
EXTT11=
EXTT12=
EXTT13=
PLAYORDER=
